<?xml version="1.0" encoding="UTF-8"?>
<svg version="1.1" xmlns="http://www.w3.org/2000/svg" width="564" height="564">
<path d="M0 0 C186.12 0 372.24 0 564 0 C564 186.12 564 372.24 564 564 C377.88 564 191.76 564 0 564 C0 377.88 0 191.76 0 0 Z " fill="#000000" transform="translate(0,0)"/>
<path d="M0 0 C1.32 0 2.64 0 4 0 C1.26033981 8.82890492 -2.33083514 17.28464039 -5.875 25.8125 C-6.49376749 27.30782774 -7.1122589 28.80326975 -7.73046875 30.29882812 C-9.21114246 33.87885166 -10.69675404 37.45679954 -12.184021 41.03408813 C-12.95367297 42.88838578 -13.71939469 44.74431331 -14.48486328 46.6003418 C-15.14204346 48.19036011 -15.14204346 48.19036011 -15.8125 49.8125 C-16.18761719 50.72257812 -16.56273437 51.63265625 -16.94921875 52.5703125 C-17.92592648 54.82872219 -18.98531665 57.00764064 -20.125 59.1875 C-21.51341299 61.87029005 -22.53680277 64.4917625 -23.4375 67.375 C-24.47815317 70.6769644 -25.7650485 73.62307518 -27.375 76.6875 C-30.06583948 81.86716399 -31.90893734 87.23375307 -33.8125 92.7421875 C-34.99202952 95.97813361 -36.36464245 98.94447411 -37.984375 101.97460938 C-39.03115139 104.06212306 -39.89960076 106.16119926 -40.75 108.3359375 C-43.4044307 115.0465149 -46.17376177 121.70895642 -48.9375 128.375 C-49.45513012 129.62497847 -49.97270846 130.87497838 -50.49023438 132.125 C-51.50404889 134.57332034 -52.5192608 137.0210466 -53.53515625 139.46850586 C-54.49859652 141.79119977 -55.4596043 144.11490443 -56.41796875 146.43969727 C-56.85625 147.49987061 -57.29453125 148.56004395 -57.74609375 149.65234375 C-58.13079834 150.58554443 -58.51550293 151.51874512 -58.91186523 152.48022461 C-59.90066791 154.76997835 -60.96882026 156.97855039 -62.125 159.1875 C-63.90201609 162.62069508 -65.05919607 166.10610648 -66.22265625 169.78515625 C-67.2148194 172.61207337 -68.54216189 175.18104417 -69.92749023 177.83178711 C-70.95357814 179.90615239 -71.82409412 181.97710296 -72.6640625 184.1328125 C-75.50025831 191.3018479 -78.4718092 198.41410859 -81.43579102 205.53100586 C-82.43360019 207.92813114 -83.42874599 210.32635101 -84.42382812 212.72460938 C-87.49579237 220.11184267 -90.58908184 227.4717126 -93.98901367 234.71606445 C-95.08417664 237.19016481 -95.9926283 239.69294318 -96.875 242.25 C-98.46878112 246.79162832 -100.41650765 251.10434047 -102.5 255.4375 C-105.55556768 261.80143704 -107.9699833 268.22907473 -110 275 C-110.66 275 -111.32 275 -112 275 C-112.17789063 276.03060547 -112.17789063 276.03060547 -112.359375 277.08203125 C-113.08689395 280.39579135 -114.11814916 283.48894684 -115.25 286.6875 C-115.64703125 287.82574219 -116.0440625 288.96398437 -116.453125 290.13671875 C-117.56103699 293.06526612 -118.88932858 295.8134531 -120.3203125 298.59765625 C-123.49120977 304.81953794 -126.04055531 311.26758791 -128.625 317.75 C-129.57327629 320.12069072 -130.52372457 322.49051403 -131.4765625 324.859375 C-131.88986816 325.89545898 -132.30317383 326.93154297 -132.72900391 327.99902344 C-134.03000288 331.07084044 -135.49685151 334.02292583 -137 337 C-137.67490209 338.78092035 -138.32177969 340.57276288 -138.9375 342.375 C-140.11296978 345.69581386 -141.34501287 348.82872025 -143 351.9375 C-145.68080994 357.0331665 -147.28344687 362.52163894 -149 368 C-149.66 368 -150.32 368 -151 368 C-151.12890625 368.73089844 -151.2578125 369.46179688 -151.390625 370.21484375 C-153.73070548 380.91021156 -159.46599884 391.32523927 -163.6746521 401.4087677 C-164.97222158 404.51795066 -166.26922639 407.62736904 -167.56616211 410.73681641 C-168.2319252 412.33262491 -168.897942 413.92832759 -169.56420898 415.52392578 C-174.48212874 427.29043613 -174.48212874 427.29043613 -179.25219727 439.11743164 C-180.86073772 443.16687841 -182.59173768 447.13395568 -184.44921875 451.07421875 C-188.33849914 459.3172664 -188.33849914 459.3172664 -191 468 C-191.66 468 -192.32 468 -193 468 C-193.33 469.65 -193.66 471.3 -194 473 C-194.66 473 -195.32 473 -196 473 C-198.69323786 456.44352452 -201.23409285 439.86839145 -203.69049072 423.27526855 C-206.68430229 403.07463357 -209.77997762 382.89597014 -213.125 362.75 C-216.18356273 344.32914515 -218.968805 325.87964294 -221.62841797 307.3972168 C-221.90847995 305.45100211 -222.18858941 303.50479425 -222.46875 301.55859375 C-222.60241974 300.62983932 -222.73608948 299.7010849 -222.87380981 298.7441864 C-225.08132819 283.45653277 -227.54300299 268.2119658 -230.2890625 253.01171875 C-231.24692541 247.68378394 -232.11734205 242.34080047 -233 237 C-254.53076238 232.82671144 -254.53076238 232.82671144 -276.25 229.9375 C-284.25035454 229.19788778 -292.14231132 227.89850507 -300.0625 226.5625 C-301.05449402 226.39536499 -301.05449402 226.39536499 -302.06652832 226.22485352 C-307.93450908 225.23311255 -313.80053261 224.23195686 -319.65234375 223.1484375 C-328.09577889 221.5883307 -336.54778772 220.36145896 -345.0625 219.25 C-402.84146602 211.69498298 -402.84146602 211.69498298 -426.67822266 206.78466797 C-441.32688184 203.8233221 -456.19634794 202.00694673 -471 200 C-466.50639944 196.44134247 -461.71977536 195.06840033 -456.3125 193.28125 C-453.09116296 192.20784206 -453.09116296 192.20784206 -451.03515625 190.5234375 C-448.12089781 188.34193886 -444.83803558 187.32053823 -441.4375 186.125 C-435.54133191 183.99813918 -429.86173142 181.66153819 -424.234375 178.8828125 C-422 178 -422 178 -418 178 C-418 177.34 -418 176.68 -418 176 C-416.37372681 175.34197388 -416.37372681 175.34197388 -414.71459961 174.6706543 C-410.66824697 173.03319007 -406.62227601 171.39478455 -402.57641602 169.75610352 C-400.82977424 169.04881782 -399.08303091 168.34178285 -397.33618164 167.63500977 C-394.81629726 166.61541583 -392.296787 165.59490216 -389.77734375 164.57421875 C-389.00414291 164.26159592 -388.23094208 163.94897308 -387.43431091 163.62687683 C-382.93300727 161.80209848 -378.45966277 159.92428699 -374 158 C-372.08427767 157.2060509 -370.16764042 156.41430504 -368.25 155.625 C-363.21276895 153.54302888 -358.2814372 151.29087365 -353.375 148.91796875 C-351 148 -351 148 -347 148 C-347 147.34 -347 146.68 -347 146 C-344.91999989 145.15838146 -342.83585854 144.32699237 -340.75 143.5 C-339.58984375 143.0359375 -338.4296875 142.571875 -337.234375 142.09375 C-334 141 -334 141 -330 141 C-330 140.34 -330 139.68 -330 139 C-329.0821875 138.68546875 -328.164375 138.3709375 -327.21875 138.046875 C-321.30721971 135.98529091 -315.50828359 133.94514926 -309.95703125 131.0234375 C-302.47210813 127.10916633 -294.66779428 124.03649455 -286.74609375 121.14306641 C-282.42937672 119.56322583 -278.21624388 117.83185094 -274 116 C-272.44026003 115.36814362 -270.87799656 114.74245589 -269.3125 114.125 C-265.53599913 112.61783804 -261.76288041 111.10339711 -258 109.5625 C-256.63875 109.00755859 -256.63875 109.00755859 -255.25 108.44140625 C-252.71370079 107.31653316 -250.30084428 106.12237088 -247.84375 104.84375 C-239.62626727 100.69887262 -231.02089523 97.39817522 -222.5 93.9375 C-220.75115906 93.22365758 -219.00246008 92.50946727 -217.25390625 91.79492188 C-202.23839584 85.66501008 -202.23839584 85.66501008 -194.96582031 82.83398438 C-192.66192124 81.85657265 -190.46528237 80.72567188 -188.25 79.5625 C-180.66729386 75.68101968 -172.4162569 72.45271226 -164 71 C-164 70.34 -164 69.68 -164 69 C-162.84983398 68.57509277 -161.69966797 68.15018555 -160.51464844 67.71240234 C-156.22390427 66.10263723 -151.99183153 64.37274395 -147.765625 62.6015625 C-146.62670807 62.1263063 -146.62670807 62.1263063 -145.46478271 61.64144897 C-143.05928959 60.63731375 -140.65462777 59.6312055 -138.25 58.625 C-136.65370153 57.95819999 -135.05734776 57.29153232 -133.4609375 56.625 C-130.37839498 55.33785817 -127.29634096 54.04955674 -124.21459961 52.76049805 C-119.65646009 50.85472669 -115.0926075 48.96279581 -110.52661133 47.07592773 C-107.80381665 45.91645763 -105.12001971 44.68706364 -102.4375 43.4375 C-97.85441157 41.32477571 -93.20571073 39.58223624 -88.4453125 37.9140625 C-85.78555009 36.9722952 -85.78555009 36.9722952 -82.5625 35.25 C-80 34 -80 34 -76 34 C-76 33.34 -76 32.68 -76 32 C-74.39226383 31.35690553 -72.78452257 30.71382377 -71.17675781 30.07080078 C-69.7932047 29.51731369 -68.40974314 28.96359771 -67.02636719 28.40966797 C-64.16799034 27.2653853 -61.30942025 26.12206487 -58.4453125 24.9921875 C-51.12407781 22.10016952 -43.88326931 19.01705078 -36.6328125 15.953125 C-32.92899357 14.38872317 -29.21681572 12.84580779 -25.5 11.3125 C-20.79837819 9.36224626 -16.17696767 7.26308075 -11.5546875 5.1328125 C-9.18528142 4.08215843 -6.80791819 3.1417814 -4.375 2.25 C-1.20312202 1.34228874 -1.20312202 1.34228874 0 0 Z " fill="#FDFDFD" transform="translate(497,59)"/>
</svg>
